<?xml version="1.0" encoding="utf-8" standalone="no"?>
<!DOCTYPE svg PUBLIC "-//W3C//DTD SVG 1.1//EN"
  "http://www.w3.org/Graphics/SVG/1.1/DTD/svg11.dtd">
<!-- Created with matplotlib (https://matplotlib.org/) -->
<svg height="707.04pt" version="1.1" viewBox="0 0 1330.56 707.04" width="1330.56pt" xmlns="http://www.w3.org/2000/svg" xmlns:xlink="http://www.w3.org/1999/xlink">
 <metadata>
  <rdf:RDF xmlns:cc="http://creativecommons.org/ns#" xmlns:dc="http://purl.org/dc/elements/1.1/" xmlns:rdf="http://www.w3.org/1999/02/22-rdf-syntax-ns#">
   <cc:Work>
    <dc:type rdf:resource="http://purl.org/dc/dcmitype/StillImage"/>
    <dc:date>2021-05-06T19:04:56.770332</dc:date>
    <dc:format>image/svg+xml</dc:format>
    <dc:creator>
     <cc:Agent>
      <dc:title>Matplotlib v3.3.3, https://matplotlib.org/</dc:title>
     </cc:Agent>
    </dc:creator>
   </cc:Work>
  </rdf:RDF>
 </metadata>
 <defs>
  <style type="text/css">*{stroke-linecap:butt;stroke-linejoin:round;}</style>
 </defs>
 <g id="figure_1">
  <g id="patch_1">
   <path d="M 0 707.04 
L 1330.56 707.04 
L 1330.56 0 
L 0 0 
z
" style="fill:#ffffff;"/>
  </g>
  <g id="axes_1">
   <g id="patch_2">
    <path d="M 166.32 629.2656 
L 1197.504 629.2656 
L 1197.504 84.8448 
L 166.32 84.8448 
z
" style="fill:#ffffff;"/>
   </g>
   <g id="matplotlib.axis_1">
    <g id="xtick_1">
     <g id="line2d_1">
      <path clip-path="url(#pbf1bba5c64)" d="M 213.192 629.2656 
L 213.192 84.8448 
" style="fill:none;stroke:#b0b0b0;stroke-linecap:square;stroke-width:0.8;"/>
     </g>
     <g id="line2d_2">
      <defs>
       <path d="M 0 0 
L 0 3.5 
" id="m182348ceb7" style="stroke:#000000;stroke-width:0.8;"/>
      </defs>
      <g>
       <use style="stroke:#000000;stroke-width:0.8;" x="213.192" xlink:href="#m182348ceb7" y="629.2656"/>
      </g>
     </g>
     <g id="text_1">
      <!-- 10 -->
      <g transform="translate(206.8295 643.864037)scale(0.1 -0.1)">
       <defs>
        <path d="M 12.40625 8.296875 
L 28.515625 8.296875 
L 28.515625 63.921875 
L 10.984375 60.40625 
L 10.984375 69.390625 
L 28.421875 72.90625 
L 38.28125 72.90625 
L 38.28125 8.296875 
L 54.390625 8.296875 
L 54.390625 0 
L 12.40625 0 
z
" id="DejaVuSans-49"/>
        <path d="M 31.78125 66.40625 
Q 24.171875 66.40625 20.328125 58.90625 
Q 16.5 51.421875 16.5 36.375 
Q 16.5 21.390625 20.328125 13.890625 
Q 24.171875 6.390625 31.78125 6.390625 
Q 39.453125 6.390625 43.28125 13.890625 
Q 47.125 21.390625 47.125 36.375 
Q 47.125 51.421875 43.28125 58.90625 
Q 39.453125 66.40625 31.78125 66.40625 
z
M 31.78125 74.21875 
Q 44.046875 74.21875 50.515625 64.515625 
Q 56.984375 54.828125 56.984375 36.375 
Q 56.984375 17.96875 50.515625 8.265625 
Q 44.046875 -1.421875 31.78125 -1.421875 
Q 19.53125 -1.421875 13.0625 8.265625 
Q 6.59375 17.96875 6.59375 36.375 
Q 6.59375 54.828125 13.0625 64.515625 
Q 19.53125 74.21875 31.78125 74.21875 
z
" id="DejaVuSans-48"/>
       </defs>
       <use xlink:href="#DejaVuSans-49"/>
       <use x="63.623047" xlink:href="#DejaVuSans-48"/>
      </g>
     </g>
    </g>
    <g id="xtick_2">
     <g id="line2d_3">
      <path clip-path="url(#pbf1bba5c64)" d="M 330.372 629.2656 
L 330.372 84.8448 
" style="fill:none;stroke:#b0b0b0;stroke-linecap:square;stroke-width:0.8;"/>
     </g>
     <g id="line2d_4">
      <g>
       <use style="stroke:#000000;stroke-width:0.8;" x="330.372" xlink:href="#m182348ceb7" y="629.2656"/>
      </g>
     </g>
     <g id="text_2">
      <!-- 15 -->
      <g transform="translate(324.0095 643.864037)scale(0.1 -0.1)">
       <defs>
        <path d="M 10.796875 72.90625 
L 49.515625 72.90625 
L 49.515625 64.59375 
L 19.828125 64.59375 
L 19.828125 46.734375 
Q 21.96875 47.46875 24.109375 47.828125 
Q 26.265625 48.1875 28.421875 48.1875 
Q 40.625 48.1875 47.75 41.5 
Q 54.890625 34.8125 54.890625 23.390625 
Q 54.890625 11.625 47.5625 5.09375 
Q 40.234375 -1.421875 26.90625 -1.421875 
Q 22.3125 -1.421875 17.546875 -0.640625 
Q 12.796875 0.140625 7.71875 1.703125 
L 7.71875 11.625 
Q 12.109375 9.234375 16.796875 8.0625 
Q 21.484375 6.890625 26.703125 6.890625 
Q 35.15625 6.890625 40.078125 11.328125 
Q 45.015625 15.765625 45.015625 23.390625 
Q 45.015625 31 40.078125 35.4375 
Q 35.15625 39.890625 26.703125 39.890625 
Q 22.75 39.890625 18.8125 39.015625 
Q 14.890625 38.140625 10.796875 36.28125 
z
" id="DejaVuSans-53"/>
       </defs>
       <use xlink:href="#DejaVuSans-49"/>
       <use x="63.623047" xlink:href="#DejaVuSans-53"/>
      </g>
     </g>
    </g>
    <g id="xtick_3">
     <g id="line2d_5">
      <path clip-path="url(#pbf1bba5c64)" d="M 447.552 629.2656 
L 447.552 84.8448 
" style="fill:none;stroke:#b0b0b0;stroke-linecap:square;stroke-width:0.8;"/>
     </g>
     <g id="line2d_6">
      <g>
       <use style="stroke:#000000;stroke-width:0.8;" x="447.552" xlink:href="#m182348ceb7" y="629.2656"/>
      </g>
     </g>
     <g id="text_3">
      <!-- 20 -->
      <g transform="translate(441.1895 643.864037)scale(0.1 -0.1)">
       <defs>
        <path d="M 19.1875 8.296875 
L 53.609375 8.296875 
L 53.609375 0 
L 7.328125 0 
L 7.328125 8.296875 
Q 12.9375 14.109375 22.625 23.890625 
Q 32.328125 33.6875 34.8125 36.53125 
Q 39.546875 41.84375 41.421875 45.53125 
Q 43.3125 49.21875 43.3125 52.78125 
Q 43.3125 58.59375 39.234375 62.25 
Q 35.15625 65.921875 28.609375 65.921875 
Q 23.96875 65.921875 18.8125 64.3125 
Q 13.671875 62.703125 7.8125 59.421875 
L 7.8125 69.390625 
Q 13.765625 71.78125 18.9375 73 
Q 24.125 74.21875 28.421875 74.21875 
Q 39.75 74.21875 46.484375 68.546875 
Q 53.21875 62.890625 53.21875 53.421875 
Q 53.21875 48.921875 51.53125 44.890625 
Q 49.859375 40.875 45.40625 35.40625 
Q 44.1875 33.984375 37.640625 27.21875 
Q 31.109375 20.453125 19.1875 8.296875 
z
" id="DejaVuSans-50"/>
       </defs>
       <use xlink:href="#DejaVuSans-50"/>
       <use x="63.623047" xlink:href="#DejaVuSans-48"/>
      </g>
     </g>
    </g>
    <g id="xtick_4">
     <g id="line2d_7">
      <path clip-path="url(#pbf1bba5c64)" d="M 564.732 629.2656 
L 564.732 84.8448 
" style="fill:none;stroke:#b0b0b0;stroke-linecap:square;stroke-width:0.8;"/>
     </g>
     <g id="line2d_8">
      <g>
       <use style="stroke:#000000;stroke-width:0.8;" x="564.732" xlink:href="#m182348ceb7" y="629.2656"/>
      </g>
     </g>
     <g id="text_4">
      <!-- 25 -->
      <g transform="translate(558.3695 643.864037)scale(0.1 -0.1)">
       <use xlink:href="#DejaVuSans-50"/>
       <use x="63.623047" xlink:href="#DejaVuSans-53"/>
      </g>
     </g>
    </g>
    <g id="xtick_5">
     <g id="line2d_9">
      <path clip-path="url(#pbf1bba5c64)" d="M 681.912 629.2656 
L 681.912 84.8448 
" style="fill:none;stroke:#b0b0b0;stroke-linecap:square;stroke-width:0.8;"/>
     </g>
     <g id="line2d_10">
      <g>
       <use style="stroke:#000000;stroke-width:0.8;" x="681.912" xlink:href="#m182348ceb7" y="629.2656"/>
      </g>
     </g>
     <g id="text_5">
      <!-- 30 -->
      <g transform="translate(675.5495 643.864037)scale(0.1 -0.1)">
       <defs>
        <path d="M 40.578125 39.3125 
Q 47.65625 37.796875 51.625 33 
Q 55.609375 28.21875 55.609375 21.1875 
Q 55.609375 10.40625 48.1875 4.484375 
Q 40.765625 -1.421875 27.09375 -1.421875 
Q 22.515625 -1.421875 17.65625 -0.515625 
Q 12.796875 0.390625 7.625 2.203125 
L 7.625 11.71875 
Q 11.71875 9.328125 16.59375 8.109375 
Q 21.484375 6.890625 26.8125 6.890625 
Q 36.078125 6.890625 40.9375 10.546875 
Q 45.796875 14.203125 45.796875 21.1875 
Q 45.796875 27.640625 41.28125 31.265625 
Q 36.765625 34.90625 28.71875 34.90625 
L 20.21875 34.90625 
L 20.21875 43.015625 
L 29.109375 43.015625 
Q 36.375 43.015625 40.234375 45.921875 
Q 44.09375 48.828125 44.09375 54.296875 
Q 44.09375 59.90625 40.109375 62.90625 
Q 36.140625 65.921875 28.71875 65.921875 
Q 24.65625 65.921875 20.015625 65.03125 
Q 15.375 64.15625 9.8125 62.3125 
L 9.8125 71.09375 
Q 15.4375 72.65625 20.34375 73.4375 
Q 25.25 74.21875 29.59375 74.21875 
Q 40.828125 74.21875 47.359375 69.109375 
Q 53.90625 64.015625 53.90625 55.328125 
Q 53.90625 49.265625 50.4375 45.09375 
Q 46.96875 40.921875 40.578125 39.3125 
z
" id="DejaVuSans-51"/>
       </defs>
       <use xlink:href="#DejaVuSans-51"/>
       <use x="63.623047" xlink:href="#DejaVuSans-48"/>
      </g>
     </g>
    </g>
    <g id="xtick_6">
     <g id="line2d_11">
      <path clip-path="url(#pbf1bba5c64)" d="M 799.092 629.2656 
L 799.092 84.8448 
" style="fill:none;stroke:#b0b0b0;stroke-linecap:square;stroke-width:0.8;"/>
     </g>
     <g id="line2d_12">
      <g>
       <use style="stroke:#000000;stroke-width:0.8;" x="799.092" xlink:href="#m182348ceb7" y="629.2656"/>
      </g>
     </g>
     <g id="text_6">
      <!-- 35 -->
      <g transform="translate(792.7295 643.864037)scale(0.1 -0.1)">
       <use xlink:href="#DejaVuSans-51"/>
       <use x="63.623047" xlink:href="#DejaVuSans-53"/>
      </g>
     </g>
    </g>
    <g id="xtick_7">
     <g id="line2d_13">
      <path clip-path="url(#pbf1bba5c64)" d="M 916.272 629.2656 
L 916.272 84.8448 
" style="fill:none;stroke:#b0b0b0;stroke-linecap:square;stroke-width:0.8;"/>
     </g>
     <g id="line2d_14">
      <g>
       <use style="stroke:#000000;stroke-width:0.8;" x="916.272" xlink:href="#m182348ceb7" y="629.2656"/>
      </g>
     </g>
     <g id="text_7">
      <!-- 40 -->
      <g transform="translate(909.9095 643.864037)scale(0.1 -0.1)">
       <defs>
        <path d="M 37.796875 64.3125 
L 12.890625 25.390625 
L 37.796875 25.390625 
z
M 35.203125 72.90625 
L 47.609375 72.90625 
L 47.609375 25.390625 
L 58.015625 25.390625 
L 58.015625 17.1875 
L 47.609375 17.1875 
L 47.609375 0 
L 37.796875 0 
L 37.796875 17.1875 
L 4.890625 17.1875 
L 4.890625 26.703125 
z
" id="DejaVuSans-52"/>
       </defs>
       <use xlink:href="#DejaVuSans-52"/>
       <use x="63.623047" xlink:href="#DejaVuSans-48"/>
      </g>
     </g>
    </g>
    <g id="xtick_8">
     <g id="line2d_15">
      <path clip-path="url(#pbf1bba5c64)" d="M 1033.452 629.2656 
L 1033.452 84.8448 
" style="fill:none;stroke:#b0b0b0;stroke-linecap:square;stroke-width:0.8;"/>
     </g>
     <g id="line2d_16">
      <g>
       <use style="stroke:#000000;stroke-width:0.8;" x="1033.452" xlink:href="#m182348ceb7" y="629.2656"/>
      </g>
     </g>
     <g id="text_8">
      <!-- 45 -->
      <g transform="translate(1027.0895 643.864037)scale(0.1 -0.1)">
       <use xlink:href="#DejaVuSans-52"/>
       <use x="63.623047" xlink:href="#DejaVuSans-53"/>
      </g>
     </g>
    </g>
    <g id="xtick_9">
     <g id="line2d_17">
      <path clip-path="url(#pbf1bba5c64)" d="M 1150.632 629.2656 
L 1150.632 84.8448 
" style="fill:none;stroke:#b0b0b0;stroke-linecap:square;stroke-width:0.8;"/>
     </g>
     <g id="line2d_18">
      <g>
       <use style="stroke:#000000;stroke-width:0.8;" x="1150.632" xlink:href="#m182348ceb7" y="629.2656"/>
      </g>
     </g>
     <g id="text_9">
      <!-- 50 -->
      <g transform="translate(1144.2695 643.864037)scale(0.1 -0.1)">
       <use xlink:href="#DejaVuSans-53"/>
       <use x="63.623047" xlink:href="#DejaVuSans-48"/>
      </g>
     </g>
    </g>
   </g>
   <g id="matplotlib.axis_2">
    <g id="ytick_1">
     <g id="line2d_19">
      <path clip-path="url(#pbf1bba5c64)" d="M 166.32 566.832191 
L 1197.504 566.832191 
" style="fill:none;stroke:#b0b0b0;stroke-linecap:square;stroke-width:0.8;"/>
     </g>
     <g id="line2d_20">
      <defs>
       <path d="M 0 0 
L -3.5 0 
" id="ma35bba451c" style="stroke:#000000;stroke-width:0.8;"/>
      </defs>
      <g>
       <use style="stroke:#000000;stroke-width:0.8;" x="166.32" xlink:href="#ma35bba451c" y="566.832191"/>
      </g>
     </g>
     <g id="text_10">
      <!-- 500 -->
      <g transform="translate(140.2325 570.631409)scale(0.1 -0.1)">
       <use xlink:href="#DejaVuSans-53"/>
       <use x="63.623047" xlink:href="#DejaVuSans-48"/>
       <use x="127.246094" xlink:href="#DejaVuSans-48"/>
      </g>
     </g>
    </g>
    <g id="ytick_2">
     <g id="line2d_21">
      <path clip-path="url(#pbf1bba5c64)" d="M 166.32 473.174738 
L 1197.504 473.174738 
" style="fill:none;stroke:#b0b0b0;stroke-linecap:square;stroke-width:0.8;"/>
     </g>
     <g id="line2d_22">
      <g>
       <use style="stroke:#000000;stroke-width:0.8;" x="166.32" xlink:href="#ma35bba451c" y="473.174738"/>
      </g>
     </g>
     <g id="text_11">
      <!-- 550 -->
      <g transform="translate(140.2325 476.973956)scale(0.1 -0.1)">
       <use xlink:href="#DejaVuSans-53"/>
       <use x="63.623047" xlink:href="#DejaVuSans-53"/>
       <use x="127.246094" xlink:href="#DejaVuSans-48"/>
      </g>
     </g>
    </g>
    <g id="ytick_3">
     <g id="line2d_23">
      <path clip-path="url(#pbf1bba5c64)" d="M 166.32 379.517285 
L 1197.504 379.517285 
" style="fill:none;stroke:#b0b0b0;stroke-linecap:square;stroke-width:0.8;"/>
     </g>
     <g id="line2d_24">
      <g>
       <use style="stroke:#000000;stroke-width:0.8;" x="166.32" xlink:href="#ma35bba451c" y="379.517285"/>
      </g>
     </g>
     <g id="text_12">
      <!-- 600 -->
      <g transform="translate(140.2325 383.316503)scale(0.1 -0.1)">
       <defs>
        <path d="M 33.015625 40.375 
Q 26.375 40.375 22.484375 35.828125 
Q 18.609375 31.296875 18.609375 23.390625 
Q 18.609375 15.53125 22.484375 10.953125 
Q 26.375 6.390625 33.015625 6.390625 
Q 39.65625 6.390625 43.53125 10.953125 
Q 47.40625 15.53125 47.40625 23.390625 
Q 47.40625 31.296875 43.53125 35.828125 
Q 39.65625 40.375 33.015625 40.375 
z
M 52.59375 71.296875 
L 52.59375 62.3125 
Q 48.875 64.0625 45.09375 64.984375 
Q 41.3125 65.921875 37.59375 65.921875 
Q 27.828125 65.921875 22.671875 59.328125 
Q 17.53125 52.734375 16.796875 39.40625 
Q 19.671875 43.65625 24.015625 45.921875 
Q 28.375 48.1875 33.59375 48.1875 
Q 44.578125 48.1875 50.953125 41.515625 
Q 57.328125 34.859375 57.328125 23.390625 
Q 57.328125 12.15625 50.6875 5.359375 
Q 44.046875 -1.421875 33.015625 -1.421875 
Q 20.359375 -1.421875 13.671875 8.265625 
Q 6.984375 17.96875 6.984375 36.375 
Q 6.984375 53.65625 15.1875 63.9375 
Q 23.390625 74.21875 37.203125 74.21875 
Q 40.921875 74.21875 44.703125 73.484375 
Q 48.484375 72.75 52.59375 71.296875 
z
" id="DejaVuSans-54"/>
       </defs>
       <use xlink:href="#DejaVuSans-54"/>
       <use x="63.623047" xlink:href="#DejaVuSans-48"/>
       <use x="127.246094" xlink:href="#DejaVuSans-48"/>
      </g>
     </g>
    </g>
    <g id="ytick_4">
     <g id="line2d_25">
      <path clip-path="url(#pbf1bba5c64)" d="M 166.32 285.859832 
L 1197.504 285.859832 
" style="fill:none;stroke:#b0b0b0;stroke-linecap:square;stroke-width:0.8;"/>
     </g>
     <g id="line2d_26">
      <g>
       <use style="stroke:#000000;stroke-width:0.8;" x="166.32" xlink:href="#ma35bba451c" y="285.859832"/>
      </g>
     </g>
     <g id="text_13">
      <!-- 650 -->
      <g transform="translate(140.2325 289.65905)scale(0.1 -0.1)">
       <use xlink:href="#DejaVuSans-54"/>
       <use x="63.623047" xlink:href="#DejaVuSans-53"/>
       <use x="127.246094" xlink:href="#DejaVuSans-48"/>
      </g>
     </g>
    </g>
    <g id="ytick_5">
     <g id="line2d_27">
      <path clip-path="url(#pbf1bba5c64)" d="M 166.32 192.202379 
L 1197.504 192.202379 
" style="fill:none;stroke:#b0b0b0;stroke-linecap:square;stroke-width:0.8;"/>
     </g>
     <g id="line2d_28">
      <g>
       <use style="stroke:#000000;stroke-width:0.8;" x="166.32" xlink:href="#ma35bba451c" y="192.202379"/>
      </g>
     </g>
     <g id="text_14">
      <!-- 700 -->
      <g transform="translate(140.2325 196.001597)scale(0.1 -0.1)">
       <defs>
        <path d="M 8.203125 72.90625 
L 55.078125 72.90625 
L 55.078125 68.703125 
L 28.609375 0 
L 18.3125 0 
L 43.21875 64.59375 
L 8.203125 64.59375 
z
" id="DejaVuSans-55"/>
       </defs>
       <use xlink:href="#DejaVuSans-55"/>
       <use x="63.623047" xlink:href="#DejaVuSans-48"/>
       <use x="127.246094" xlink:href="#DejaVuSans-48"/>
      </g>
     </g>
    </g>
    <g id="ytick_6">
     <g id="line2d_29">
      <path clip-path="url(#pbf1bba5c64)" d="M 166.32 98.544925 
L 1197.504 98.544925 
" style="fill:none;stroke:#b0b0b0;stroke-linecap:square;stroke-width:0.8;"/>
     </g>
     <g id="line2d_30">
      <g>
       <use style="stroke:#000000;stroke-width:0.8;" x="166.32" xlink:href="#ma35bba451c" y="98.544925"/>
      </g>
     </g>
     <g id="text_15">
      <!-- 750 -->
      <g transform="translate(140.2325 102.344144)scale(0.1 -0.1)">
       <use xlink:href="#DejaVuSans-55"/>
       <use x="63.623047" xlink:href="#DejaVuSans-53"/>
       <use x="127.246094" xlink:href="#DejaVuSans-48"/>
      </g>
     </g>
    </g>
   </g>
   <g id="line2d_31">
    <path clip-path="url(#pbf1bba5c64)" d="M 213.192 406.195866 
L 223.514162 357.133484 
L 234.774703 303.831838 
L 241.343351 273.787519 
L 246.973622 249.097509 
L 251.665514 229.488744 
L 256.357405 210.925432 
L 260.110919 196.927184 
L 263.864432 183.764188 
L 267.617946 171.503498 
L 270.433081 162.93785 
L 273.248216 154.939475 
L 276.063351 147.531248 
L 278.878486 140.734333 
L 281.693622 134.568129 
L 284.508757 129.050208 
L 287.323892 124.196264 
L 289.200649 121.336061 
L 291.077405 118.780719 
L 292.954162 116.533446 
L 294.830919 114.597052 
L 296.707676 112.973946 
L 298.584432 111.666136 
L 300.461189 110.675223 
L 302.337946 110.002403 
L 304.214703 109.648459 
L 306.091459 109.613769 
L 307.968216 109.898295 
L 309.844973 110.501594 
L 311.72173 111.42281 
L 313.598486 112.66068 
L 315.475243 114.213532 
L 317.352 116.079293 
L 319.228757 118.255486 
L 321.105514 120.739234 
L 322.98227 123.527269 
L 324.859027 126.615929 
L 327.674162 131.803636 
L 330.489297 137.643301 
L 333.304432 144.117789 
L 336.119568 151.208134 
L 338.934703 158.893597 
L 341.749838 167.151724 
L 345.503351 179.011488 
L 349.256865 191.784843 
L 353.010378 205.405673 
L 356.763892 219.803546 
L 361.455784 238.779945 
L 366.147676 258.700994 
L 371.777946 283.626829 
L 378.346595 313.748099 
L 389.607135 366.673563 
L 399.929297 414.830826 
L 406.497946 444.414742 
L 412.128216 468.692046 
L 416.820108 487.948022 
L 421.512 506.154039 
L 425.265514 519.865649 
L 429.019027 532.743453 
L 432.772541 544.722492 
L 435.587676 553.080539 
L 438.402811 560.875483 
L 441.217946 568.08542 
L 444.033081 574.690173 
L 446.848216 580.671344 
L 449.663351 586.012372 
L 452.478486 590.698576 
L 454.355243 593.452543 
L 456.232 595.906471 
L 458.108757 598.057455 
L 459.985514 599.902984 
L 461.86227 601.440946 
L 463.739027 602.66963 
L 465.615784 603.587725 
L 467.492541 604.194328 
L 469.369297 604.488938 
L 471.246054 604.471461 
L 473.122811 604.142208 
L 474.999568 603.501897 
L 476.876324 602.551647 
L 478.753081 601.29298 
L 480.629838 599.72782 
L 482.506595 597.858486 
L 484.383351 595.687691 
L 486.260108 593.21854 
L 488.136865 590.454524 
L 490.013622 587.399513 
L 492.828757 582.280778 
L 495.643892 576.532844 
L 498.459027 570.173432 
L 501.274162 563.222033 
L 504.089297 555.699856 
L 506.904432 547.629761 
L 510.657946 536.05978 
L 514.411459 523.621424 
L 518.164973 510.381211 
L 521.918486 496.409748 
L 526.610378 478.030647 
L 531.30227 458.777691 
L 536.932541 434.745229 
L 544.439568 401.596107 
L 566.960649 301.238339 
L 572.590919 277.496733 
L 577.282811 258.547385 
L 581.974703 240.521699 
L 585.728216 226.864465 
L 589.48173 213.962403 
L 593.235243 201.881978 
L 596.988757 190.685234 
L 599.803892 182.902252 
L 602.619027 175.671006 
L 605.434162 169.012166 
L 608.249297 162.944682 
L 611.064432 157.485728 
L 613.879568 152.650657 
L 615.756324 149.780614 
L 617.633081 147.197411 
L 619.509838 144.904191 
L 621.386595 142.903715 
L 623.263351 141.198353 
L 625.140108 139.790085 
L 627.016865 138.680496 
L 628.893622 137.870776 
L 630.770378 137.361717 
L 632.647135 137.153713 
L 634.523892 137.246761 
L 636.400649 137.640457 
L 638.277405 138.334003 
L 640.154162 139.3262 
L 642.030919 140.61546 
L 643.907676 142.199798 
L 645.784432 144.076841 
L 647.661189 146.243832 
L 649.537946 148.697628 
L 651.414703 151.434711 
L 653.291459 154.451188 
L 656.106595 159.490348 
L 658.92173 165.132573 
L 661.736865 171.360178 
L 664.552 178.153747 
L 667.367135 185.492192 
L 670.18227 193.352816 
L 673.935784 204.603826 
L 677.689297 216.67843 
L 681.442811 229.510851 
L 686.134703 246.510484 
L 690.826595 264.441035 
L 696.456865 286.972737 
L 703.025514 314.312401 
L 712.409297 354.476086 
L 724.608216 406.61949 
L 731.176865 433.723491 
L 736.807135 455.972285 
L 741.499027 473.61451 
L 746.190919 490.282557 
L 749.944432 502.821885 
L 753.697946 514.581729 
L 757.451459 525.499402 
L 760.266595 533.099821 
L 763.08173 540.170947 
L 765.896865 546.691618 
L 768.712 552.642333 
L 771.527135 558.005311 
L 774.34227 562.764543 
L 776.219027 565.594867 
L 778.095784 568.146769 
L 779.972541 570.416876 
L 781.849297 572.402192 
L 783.726054 574.100103 
L 785.602811 575.508378 
L 787.479568 576.625174 
L 789.356324 577.44904 
L 791.233081 577.978914 
L 793.109838 578.214129 
L 794.986595 578.154412 
L 796.863351 577.799884 
L 798.740108 577.15106 
L 800.616865 576.208849 
L 802.493622 574.974552 
L 804.370378 573.449861 
L 806.247135 571.636856 
L 808.123892 569.538002 
L 810.000649 567.156148 
L 811.877405 564.494519 
L 813.754162 561.556716 
L 816.569297 556.640967 
L 819.384432 551.127771 
L 822.199568 545.033852 
L 825.014703 538.377685 
L 827.829838 531.179434 
L 830.644973 523.460899 
L 834.398486 512.400789 
L 838.152 500.516934 
L 841.905514 487.873242 
L 845.659027 474.537697 
L 850.350919 457.004905 
L 855.042811 438.650631 
L 860.673081 415.758641 
L 868.180108 384.221537 
L 888.824432 296.802075 
L 894.454703 274.134324 
L 899.146595 256.022461 
L 903.838486 238.781497 
L 907.592 225.714175 
L 911.345514 213.368823 
L 915.099027 201.81262 
L 918.852541 191.108591 
L 921.667676 183.675196 
L 924.482811 176.777106 
L 927.297946 170.435662 
L 930.113081 164.670554 
L 932.928216 159.499755 
L 935.743351 154.939472 
L 937.620108 152.245641 
L 939.496865 149.833389 
L 941.373622 147.706149 
L 943.250378 145.866975 
L 945.127135 144.31854 
L 947.003892 143.063131 
L 948.880649 142.102649 
L 950.757405 141.438599 
L 952.634162 141.072097 
L 954.510919 141.003861 
L 956.387676 141.234214 
L 958.264432 141.763082 
L 960.141189 142.589996 
L 962.017946 143.714087 
L 963.894703 145.134093 
L 965.771459 146.84836 
L 967.648216 148.854838 
L 969.524973 151.151091 
L 971.40173 153.734295 
L 973.278486 156.601245 
L 976.093622 161.425751 
L 978.908757 166.866864 
L 981.723892 172.909062 
L 984.539027 179.535015 
L 987.354162 186.725637 
L 990.169297 194.460138 
L 992.984432 202.716088 
L 996.737946 214.493452 
L 1000.491459 227.093953 
L 1004.244973 240.452119 
L 1008.936865 258.108952 
L 1013.628757 276.696693 
L 1019.259027 300.016414 
L 1025.827676 328.272641 
L 1036.149838 373.904629 
L 1047.410378 423.511822 
L 1053.979027 451.456434 
L 1059.609297 474.39336 
L 1064.301189 492.580579 
L 1068.993081 509.762855 
L 1072.746595 522.68815 
L 1076.500108 534.808561 
L 1080.253622 546.058736 
L 1083.068757 553.888473 
L 1085.883892 561.170431 
L 1088.699027 567.882274 
L 1091.514162 574.00332 
L 1094.329297 579.514609 
L 1097.144432 584.398959 
L 1099.021189 587.299233 
L 1100.897946 589.909916 
L 1102.774703 592.227295 
L 1104.651459 594.248041 
L 1106.528216 595.969207 
L 1108.404973 597.388238 
L 1110.28173 598.502973 
L 1112.158486 599.311644 
L 1114.035243 599.812886 
L 1115.912 600.005733 
L 1117.788757 599.88962 
L 1119.665514 599.464387 
L 1121.54227 598.730278 
L 1123.419027 597.687939 
L 1125.295784 596.338421 
L 1127.172541 594.683174 
L 1129.049297 592.72405 
L 1130.926054 590.463299 
L 1132.802811 587.903565 
L 1134.679568 585.047885 
L 1136.556324 581.899683 
L 1139.371459 576.637337 
L 1142.186595 570.739921 
L 1145.00173 564.223759 
L 1147.816865 557.107006 
L 1150.632 549.409595 
L 1150.632 549.409595 
" style="fill:none;stroke:#1f77b4;stroke-linecap:square;stroke-width:1.5;"/>
   </g>
   <g id="line2d_32">
    <path clip-path="url(#pbf1bba5c64)" d="M 213.192 405.741371 
L 260.064 195.948677 
L 306.936 109.78382 
L 353.808 209.06072 
L 400.68 416.980266 
L 447.552 581.817383 
L 494.424 579.944234 
L 541.296 416.980266 
L 588.168 218.426465 
L 635.04 137.881056 
L 681.912 231.538509 
L 728.784 422.599713 
L 775.656 563.085893 
L 822.528 544.354402 
L 869.4 379.517285 
L 916.272 197.821826 
L 963.144 145.373652 
L 1010.016 261.508894 
L 1056.888 461.935843 
L 1103.76 593.056278 
L 1150.632 548.1007 
" style="fill:none;stroke:#ff7f0e;stroke-linecap:square;stroke-width:1.5;"/>
   </g>
   <g id="patch_3">
    <path d="M 166.32 629.2656 
L 166.32 84.8448 
" style="fill:none;stroke:#000000;stroke-linecap:square;stroke-linejoin:miter;stroke-width:0.8;"/>
   </g>
   <g id="patch_4">
    <path d="M 1197.504 629.2656 
L 1197.504 84.8448 
" style="fill:none;stroke:#000000;stroke-linecap:square;stroke-linejoin:miter;stroke-width:0.8;"/>
   </g>
   <g id="patch_5">
    <path d="M 166.32 629.2656 
L 1197.504 629.2656 
" style="fill:none;stroke:#000000;stroke-linecap:square;stroke-linejoin:miter;stroke-width:0.8;"/>
   </g>
   <g id="patch_6">
    <path d="M 166.32 84.8448 
L 1197.504 84.8448 
" style="fill:none;stroke:#000000;stroke-linecap:square;stroke-linejoin:miter;stroke-width:0.8;"/>
   </g>
   <g id="legend_1">
    <g id="patch_7">
     <path d="M 1024.232125 122.20105 
L 1190.504 122.20105 
Q 1192.504 122.20105 1192.504 120.20105 
L 1192.504 91.8448 
Q 1192.504 89.8448 1190.504 89.8448 
L 1024.232125 89.8448 
Q 1022.232125 89.8448 1022.232125 91.8448 
L 1022.232125 120.20105 
Q 1022.232125 122.20105 1024.232125 122.20105 
z
" style="fill:#ffffff;opacity:0.8;stroke:#cccccc;stroke-linejoin:miter;"/>
    </g>
    <g id="line2d_33">
     <path d="M 1026.232125 97.943238 
L 1046.232125 97.943238 
" style="fill:none;stroke:#1f77b4;stroke-linecap:square;stroke-width:1.5;"/>
    </g>
    <g id="line2d_34"/>
    <g id="text_16">
     <!-- f(x) -->
     <g transform="translate(1054.232125 101.443238)scale(0.1 -0.1)">
      <defs>
       <path d="M 37.109375 75.984375 
L 37.109375 68.5 
L 28.515625 68.5 
Q 23.6875 68.5 21.796875 66.546875 
Q 19.921875 64.59375 19.921875 59.515625 
L 19.921875 54.6875 
L 34.71875 54.6875 
L 34.71875 47.703125 
L 19.921875 47.703125 
L 19.921875 0 
L 10.890625 0 
L 10.890625 47.703125 
L 2.296875 47.703125 
L 2.296875 54.6875 
L 10.890625 54.6875 
L 10.890625 58.5 
Q 10.890625 67.625 15.140625 71.796875 
Q 19.390625 75.984375 28.609375 75.984375 
z
" id="DejaVuSans-102"/>
       <path d="M 31 75.875 
Q 24.46875 64.65625 21.28125 53.65625 
Q 18.109375 42.671875 18.109375 31.390625 
Q 18.109375 20.125 21.3125 9.0625 
Q 24.515625 -2 31 -13.1875 
L 23.1875 -13.1875 
Q 15.875 -1.703125 12.234375 9.375 
Q 8.59375 20.453125 8.59375 31.390625 
Q 8.59375 42.28125 12.203125 53.3125 
Q 15.828125 64.359375 23.1875 75.875 
z
" id="DejaVuSans-40"/>
       <path d="M 54.890625 54.6875 
L 35.109375 28.078125 
L 55.90625 0 
L 45.3125 0 
L 29.390625 21.484375 
L 13.484375 0 
L 2.875 0 
L 24.125 28.609375 
L 4.6875 54.6875 
L 15.28125 54.6875 
L 29.78125 35.203125 
L 44.28125 54.6875 
z
" id="DejaVuSans-120"/>
       <path d="M 8.015625 75.875 
L 15.828125 75.875 
Q 23.140625 64.359375 26.78125 53.3125 
Q 30.421875 42.28125 30.421875 31.390625 
Q 30.421875 20.453125 26.78125 9.375 
Q 23.140625 -1.703125 15.828125 -13.1875 
L 8.015625 -13.1875 
Q 14.5 -2 17.703125 9.0625 
Q 20.90625 20.125 20.90625 31.390625 
Q 20.90625 42.671875 17.703125 53.65625 
Q 14.5 64.65625 8.015625 75.875 
z
" id="DejaVuSans-41"/>
      </defs>
      <use xlink:href="#DejaVuSans-102"/>
      <use x="35.205078" xlink:href="#DejaVuSans-40"/>
      <use x="74.21875" xlink:href="#DejaVuSans-120"/>
      <use x="133.398438" xlink:href="#DejaVuSans-41"/>
     </g>
    </g>
    <g id="line2d_35">
     <path d="M 1026.232125 112.621363 
L 1046.232125 112.621363 
" style="fill:none;stroke:#ff7f0e;stroke-linecap:square;stroke-width:1.5;"/>
    </g>
    <g id="line2d_36"/>
    <g id="text_17">
     <!-- linear integer interpolation -->
     <g transform="translate(1054.232125 116.121363)scale(0.1 -0.1)">
      <defs>
       <path d="M 9.421875 75.984375 
L 18.40625 75.984375 
L 18.40625 0 
L 9.421875 0 
z
" id="DejaVuSans-108"/>
       <path d="M 9.421875 54.6875 
L 18.40625 54.6875 
L 18.40625 0 
L 9.421875 0 
z
M 9.421875 75.984375 
L 18.40625 75.984375 
L 18.40625 64.59375 
L 9.421875 64.59375 
z
" id="DejaVuSans-105"/>
       <path d="M 54.890625 33.015625 
L 54.890625 0 
L 45.90625 0 
L 45.90625 32.71875 
Q 45.90625 40.484375 42.875 44.328125 
Q 39.84375 48.1875 33.796875 48.1875 
Q 26.515625 48.1875 22.3125 43.546875 
Q 18.109375 38.921875 18.109375 30.90625 
L 18.109375 0 
L 9.078125 0 
L 9.078125 54.6875 
L 18.109375 54.6875 
L 18.109375 46.1875 
Q 21.34375 51.125 25.703125 53.5625 
Q 30.078125 56 35.796875 56 
Q 45.21875 56 50.046875 50.171875 
Q 54.890625 44.34375 54.890625 33.015625 
z
" id="DejaVuSans-110"/>
       <path d="M 56.203125 29.59375 
L 56.203125 25.203125 
L 14.890625 25.203125 
Q 15.484375 15.921875 20.484375 11.0625 
Q 25.484375 6.203125 34.421875 6.203125 
Q 39.59375 6.203125 44.453125 7.46875 
Q 49.3125 8.734375 54.109375 11.28125 
L 54.109375 2.78125 
Q 49.265625 0.734375 44.1875 -0.34375 
Q 39.109375 -1.421875 33.890625 -1.421875 
Q 20.796875 -1.421875 13.15625 6.1875 
Q 5.515625 13.8125 5.515625 26.8125 
Q 5.515625 40.234375 12.765625 48.109375 
Q 20.015625 56 32.328125 56 
Q 43.359375 56 49.78125 48.890625 
Q 56.203125 41.796875 56.203125 29.59375 
z
M 47.21875 32.234375 
Q 47.125 39.59375 43.09375 43.984375 
Q 39.0625 48.390625 32.421875 48.390625 
Q 24.90625 48.390625 20.390625 44.140625 
Q 15.875 39.890625 15.1875 32.171875 
z
" id="DejaVuSans-101"/>
       <path d="M 34.28125 27.484375 
Q 23.390625 27.484375 19.1875 25 
Q 14.984375 22.515625 14.984375 16.5 
Q 14.984375 11.71875 18.140625 8.90625 
Q 21.296875 6.109375 26.703125 6.109375 
Q 34.1875 6.109375 38.703125 11.40625 
Q 43.21875 16.703125 43.21875 25.484375 
L 43.21875 27.484375 
z
M 52.203125 31.203125 
L 52.203125 0 
L 43.21875 0 
L 43.21875 8.296875 
Q 40.140625 3.328125 35.546875 0.953125 
Q 30.953125 -1.421875 24.3125 -1.421875 
Q 15.921875 -1.421875 10.953125 3.296875 
Q 6 8.015625 6 15.921875 
Q 6 25.140625 12.171875 29.828125 
Q 18.359375 34.515625 30.609375 34.515625 
L 43.21875 34.515625 
L 43.21875 35.40625 
Q 43.21875 41.609375 39.140625 45 
Q 35.0625 48.390625 27.6875 48.390625 
Q 23 48.390625 18.546875 47.265625 
Q 14.109375 46.140625 10.015625 43.890625 
L 10.015625 52.203125 
Q 14.9375 54.109375 19.578125 55.046875 
Q 24.21875 56 28.609375 56 
Q 40.484375 56 46.34375 49.84375 
Q 52.203125 43.703125 52.203125 31.203125 
z
" id="DejaVuSans-97"/>
       <path d="M 41.109375 46.296875 
Q 39.59375 47.171875 37.8125 47.578125 
Q 36.03125 48 33.890625 48 
Q 26.265625 48 22.1875 43.046875 
Q 18.109375 38.09375 18.109375 28.8125 
L 18.109375 0 
L 9.078125 0 
L 9.078125 54.6875 
L 18.109375 54.6875 
L 18.109375 46.1875 
Q 20.953125 51.171875 25.484375 53.578125 
Q 30.03125 56 36.53125 56 
Q 37.453125 56 38.578125 55.875 
Q 39.703125 55.765625 41.0625 55.515625 
z
" id="DejaVuSans-114"/>
       <path id="DejaVuSans-32"/>
       <path d="M 18.3125 70.21875 
L 18.3125 54.6875 
L 36.8125 54.6875 
L 36.8125 47.703125 
L 18.3125 47.703125 
L 18.3125 18.015625 
Q 18.3125 11.328125 20.140625 9.421875 
Q 21.96875 7.515625 27.59375 7.515625 
L 36.8125 7.515625 
L 36.8125 0 
L 27.59375 0 
Q 17.1875 0 13.234375 3.875 
Q 9.28125 7.765625 9.28125 18.015625 
L 9.28125 47.703125 
L 2.6875 47.703125 
L 2.6875 54.6875 
L 9.28125 54.6875 
L 9.28125 70.21875 
z
" id="DejaVuSans-116"/>
       <path d="M 45.40625 27.984375 
Q 45.40625 37.75 41.375 43.109375 
Q 37.359375 48.484375 30.078125 48.484375 
Q 22.859375 48.484375 18.828125 43.109375 
Q 14.796875 37.75 14.796875 27.984375 
Q 14.796875 18.265625 18.828125 12.890625 
Q 22.859375 7.515625 30.078125 7.515625 
Q 37.359375 7.515625 41.375 12.890625 
Q 45.40625 18.265625 45.40625 27.984375 
z
M 54.390625 6.78125 
Q 54.390625 -7.171875 48.1875 -13.984375 
Q 42 -20.796875 29.203125 -20.796875 
Q 24.46875 -20.796875 20.265625 -20.09375 
Q 16.0625 -19.390625 12.109375 -17.921875 
L 12.109375 -9.1875 
Q 16.0625 -11.328125 19.921875 -12.34375 
Q 23.78125 -13.375 27.78125 -13.375 
Q 36.625 -13.375 41.015625 -8.765625 
Q 45.40625 -4.15625 45.40625 5.171875 
L 45.40625 9.625 
Q 42.625 4.78125 38.28125 2.390625 
Q 33.9375 0 27.875 0 
Q 17.828125 0 11.671875 7.65625 
Q 5.515625 15.328125 5.515625 27.984375 
Q 5.515625 40.671875 11.671875 48.328125 
Q 17.828125 56 27.875 56 
Q 33.9375 56 38.28125 53.609375 
Q 42.625 51.21875 45.40625 46.390625 
L 45.40625 54.6875 
L 54.390625 54.6875 
z
" id="DejaVuSans-103"/>
       <path d="M 18.109375 8.203125 
L 18.109375 -20.796875 
L 9.078125 -20.796875 
L 9.078125 54.6875 
L 18.109375 54.6875 
L 18.109375 46.390625 
Q 20.953125 51.265625 25.265625 53.625 
Q 29.59375 56 35.59375 56 
Q 45.5625 56 51.78125 48.09375 
Q 58.015625 40.1875 58.015625 27.296875 
Q 58.015625 14.40625 51.78125 6.484375 
Q 45.5625 -1.421875 35.59375 -1.421875 
Q 29.59375 -1.421875 25.265625 0.953125 
Q 20.953125 3.328125 18.109375 8.203125 
z
M 48.6875 27.296875 
Q 48.6875 37.203125 44.609375 42.84375 
Q 40.53125 48.484375 33.40625 48.484375 
Q 26.265625 48.484375 22.1875 42.84375 
Q 18.109375 37.203125 18.109375 27.296875 
Q 18.109375 17.390625 22.1875 11.75 
Q 26.265625 6.109375 33.40625 6.109375 
Q 40.53125 6.109375 44.609375 11.75 
Q 48.6875 17.390625 48.6875 27.296875 
z
" id="DejaVuSans-112"/>
       <path d="M 30.609375 48.390625 
Q 23.390625 48.390625 19.1875 42.75 
Q 14.984375 37.109375 14.984375 27.296875 
Q 14.984375 17.484375 19.15625 11.84375 
Q 23.34375 6.203125 30.609375 6.203125 
Q 37.796875 6.203125 41.984375 11.859375 
Q 46.1875 17.53125 46.1875 27.296875 
Q 46.1875 37.015625 41.984375 42.703125 
Q 37.796875 48.390625 30.609375 48.390625 
z
M 30.609375 56 
Q 42.328125 56 49.015625 48.375 
Q 55.71875 40.765625 55.71875 27.296875 
Q 55.71875 13.875 49.015625 6.21875 
Q 42.328125 -1.421875 30.609375 -1.421875 
Q 18.84375 -1.421875 12.171875 6.21875 
Q 5.515625 13.875 5.515625 27.296875 
Q 5.515625 40.765625 12.171875 48.375 
Q 18.84375 56 30.609375 56 
z
" id="DejaVuSans-111"/>
      </defs>
      <use xlink:href="#DejaVuSans-108"/>
      <use x="27.783203" xlink:href="#DejaVuSans-105"/>
      <use x="55.566406" xlink:href="#DejaVuSans-110"/>
      <use x="118.945312" xlink:href="#DejaVuSans-101"/>
      <use x="180.46875" xlink:href="#DejaVuSans-97"/>
      <use x="241.748047" xlink:href="#DejaVuSans-114"/>
      <use x="282.861328" xlink:href="#DejaVuSans-32"/>
      <use x="314.648438" xlink:href="#DejaVuSans-105"/>
      <use x="342.431641" xlink:href="#DejaVuSans-110"/>
      <use x="405.810547" xlink:href="#DejaVuSans-116"/>
      <use x="445.019531" xlink:href="#DejaVuSans-101"/>
      <use x="506.542969" xlink:href="#DejaVuSans-103"/>
      <use x="570.019531" xlink:href="#DejaVuSans-101"/>
      <use x="631.542969" xlink:href="#DejaVuSans-114"/>
      <use x="672.65625" xlink:href="#DejaVuSans-32"/>
      <use x="704.443359" xlink:href="#DejaVuSans-105"/>
      <use x="732.226562" xlink:href="#DejaVuSans-110"/>
      <use x="795.605469" xlink:href="#DejaVuSans-116"/>
      <use x="834.814453" xlink:href="#DejaVuSans-101"/>
      <use x="896.337891" xlink:href="#DejaVuSans-114"/>
      <use x="937.451172" xlink:href="#DejaVuSans-112"/>
      <use x="1000.927734" xlink:href="#DejaVuSans-111"/>
      <use x="1062.109375" xlink:href="#DejaVuSans-108"/>
      <use x="1089.892578" xlink:href="#DejaVuSans-97"/>
      <use x="1151.171875" xlink:href="#DejaVuSans-116"/>
      <use x="1190.380859" xlink:href="#DejaVuSans-105"/>
      <use x="1218.164062" xlink:href="#DejaVuSans-111"/>
      <use x="1279.345703" xlink:href="#DejaVuSans-110"/>
     </g>
    </g>
   </g>
  </g>
 </g>
 <defs>
  <clipPath id="pbf1bba5c64">
   <rect height="544.4208" width="1031.184" x="166.32" y="84.8448"/>
  </clipPath>
 </defs>
</svg>
